<?xml version="1.0" encoding="utf-8"?>
<!-- Generator: Adobe Illustrator 18.0.0, SVG Export Plug-In . SVG Version: 6.00 Build 0)  -->
<!DOCTYPE svg PUBLIC "-//W3C//DTD SVG 1.1//EN" "http://www.w3.org/Graphics/SVG/1.1/DTD/svg11.dtd">
<svg version="1.1" id="图层_1" xmlns="http://www.w3.org/2000/svg" xmlns:xlink="http://www.w3.org/1999/xlink" x="0px" y="0px"
	 viewBox="-56 -56 160 160" enable-background="new -56 -56 160 160" xml:space="preserve">
<g opacity="0.3">
	<path fill="#CCCCCC" d="M8.6,52.2l-0.2-1.9L6,50l-1.1-2.1l1.4-1.7l-1.1-1.6l-2.5,0.9l-1.9-1.2L1.1,42l-1.8-0.7l-1.4,2.1l-2.4-0.2
		l-0.9-2.1l-1.8,0.3l-0.4,2l3.2,2.1c2.6,0.1,5.3,0.8,7.1,3.3c2.2,3,2,6.9-0.1,9.7l-8.9-8.9L-7.9,51L8.3,67.2l-2.4-5.4l-1.6-1.6
		l1.2-1.6l2.2,0.2l0.8-1.7l-1.9-1.5l0.1-2.4L8.6,52.2z"/>
	<polygon fill="#CCCCCC" points="-16.6,51.1 -14.5,53.9 -10.4,50.6 -13.3,47.8 	"/>
	<polygon fill="#CCCCCC" points="-6.2,45.5 -9,43.4 -12.3,46.7 -9.4,49.6 	"/>
	<polygon fill="#CCCCCC" points="-5.4,34 -14.9,44.2 -13.2,45.9 	"/>
	<polygon fill="#CCCCCC" points="-15.9,45.2 -26.2,54.8 -14.2,46.9 	"/>
	<path fill="#CCCCCC" d="M-10.5,53.6l8.9,8.9c-2.9,2.2-7,2.5-9.9,0.2c-2.8-2.2-3.5-4.6-3.3-7.5l-2.1-2.8l-1.9,0.4l-0.3,1.9l2.1,0.8
		l0.2,2.5l-2.1,1.4l0.8,1.8l2.3-0.3l1.2,1.9l-1,2.5l1.6,1.1l1.7-1.4l2.1,1.1l0.3,2.5l1.9,0.2l0.8-2.2l2.4-0.2l1.5,1.9l1.7-0.8
		l-0.1-2.2L0,64.1l1.6,1.6L7,68.1L-9.2,51.9L-10.5,53.6z"/>
	<path fill="#CCCCCC" d="M19.3,48.8C19.2,48.9,19.1,49,19,49c-0.1,0-0.2-0.1-0.3-0.2l-2-2l0.1-0.1c0.2-0.2,0.5-0.3,0.7-0.3
		c0.2,0,0.5,0.2,0.8,0.5l0.3-0.3l-1.2-1.2L14.8,48l1.2,1.2l0.3-0.3c-0.3-0.3-0.5-0.6-0.5-0.8c0-0.2,0-0.5,0.3-0.7l0.1-0.1l2,2
		c0.1,0.1,0.2,0.2,0.2,0.3c0,0.1-0.1,0.2-0.2,0.3L18,50.1l0.3,0.3l1.6-1.6l-0.3-0.3L19.3,48.8z"/>
	<path fill="#CCCCCC" d="M20.5,42.9c-0.6,0-1.1,0.2-1.5,0.7c-0.5,0.5-0.7,1-0.7,1.5c0,0.6,0.2,1.1,0.7,1.6s1,0.7,1.6,0.7
		s1.1-0.2,1.5-0.7c0.5-0.5,0.7-1,0.7-1.5c0-0.6-0.3-1.1-0.7-1.6C21.6,43.2,21.1,42.9,20.5,42.9z M21.8,46.4c-0.3,0.3-0.6,0.4-1,0.3
		c-0.4-0.1-0.7-0.3-1.1-0.7c-0.4-0.4-0.6-0.8-0.7-1.1c-0.1-0.4,0-0.7,0.3-1c0.3-0.3,0.6-0.4,1-0.3c0.4,0.1,0.7,0.3,1.1,0.7
		c0.4,0.4,0.6,0.8,0.7,1.1C22.2,45.8,22.1,46.1,21.8,46.4z"/>
	<path fill="#CCCCCC" d="M24.5,43.5c-0.1,0.1-0.2,0.2-0.3,0.2c-0.1,0-0.2-0.1-0.3-0.2l-0.7-0.7l0.4-0.4c0.2-0.2,0.4-0.4,0.5-0.6
		s0.2-0.3,0.2-0.4c0-0.2,0-0.4,0-0.5c-0.1-0.2-0.2-0.3-0.3-0.5c-0.3-0.3-0.6-0.4-0.9-0.3s-0.7,0.3-1,0.6l-1.5,1.4l0.3,0.3l0.2-0.2
		c0.1-0.1,0.2-0.2,0.3-0.2c0.1,0,0.2,0.1,0.3,0.2l1.8,1.8c0,0.2,0.1,0.3,0.1,0.3c0,0.1-0.1,0.2-0.2,0.3l-0.2,0.2l0.3,0.3l1.5-1.5
		l-0.3-0.3L24.5,43.5z M21.9,41.4l0.2-0.2c0.3-0.3,0.5-0.4,0.7-0.5c0.2,0,0.3,0,0.5,0.2c0.3,0.3,0.3,0.4,0.3,0.6
		c0,0.2-0.2,0.4-0.4,0.6l-0.3,0.3L21.9,41.4z"/>
	<path fill="#CCCCCC" d="M27.2,38.9c0.2,0.2,0.3,0.3,0.4,0.5c0.1,0.1,0.2,0.3,0.2,0.4c0,0.1,0,0.2,0,0.4c-0.1,0.1-0.2,0.3-0.4,0.5
		l-0.5,0.5l-2-2c-0.1-0.1-0.2-0.2-0.2-0.3c0-0.1,0.1-0.2,0.2-0.3l0.2-0.2l-0.3-0.3l-1.5,1.5l0.3,0.3l0.2-0.2
		c0.1-0.1,0.2-0.2,0.3-0.2c0.1,0,0.2,0.1,0.3,0.2l1.8,1.8c0.1,0.1,0.2,0.2,0.2,0.3c0,0.1-0.1,0.2-0.2,0.3L26,42.3l0.3,0.3l2.6-2.6
		l-1.3-1.3L27.2,38.9z"/>
	<path fill="#CCCCCC" d="M29.9,38.1c-0.1,0.2-0.2,0.2-0.3,0.2s-0.2-0.1-0.3-0.2l-1.7-1.7c-0.1-0.1-0.2-0.2-0.2-0.3s0.1-0.2,0.2-0.3
		l0.2-0.2l-0.4-0.3l-1.5,1.5l0.3,0.3l0.2-0.2c0.1-0.1,0.2-0.2,0.3-0.2c0.1,0,0.2,0.1,0.3,0.2l1.8,1.8c0.1,0.1,0.2,0.2,0.2,0.3
		c0,0.1-0.1,0.2-0.2,0.3l-0.2,0.1l0.3,0.3l1.5-1.5l-0.3-0.3L29.9,38.1z"/>
	<path fill="#CCCCCC" d="M30.8,32.7c0-0.1,0.1-0.2,0.2-0.3l0.1-0.1L30.8,32l-1.3,1.3l0.3,0.3l0.2-0.2c0.1-0.1,0.2-0.2,0.3-0.2
		c0.1,0,0.2,0.1,0.3,0.2l1.5,1.6l-3.4-0.9l-1.1,1.1l0.3,0.3l0.2-0.2c0.1-0.1,0.2-0.2,0.3-0.2c0.1,0,0.2,0.1,0.3,0.2l1.8,1.8
		c0.1,0.1,0.2,0.2,0.2,0.3c0,0.1-0.1,0.2-0.2,0.3l-0.2,0.2l0.3,0.3l1.4-1.4l-0.3-0.3l-0.2,0.2c-0.1,0.1-0.2,0.2-0.3,0.2
		c-0.1,0-0.2-0.1-0.3-0.2l-1.8-1.8l3.8,1.1l0.6-0.6L31.1,33C30.9,32.8,30.8,32.8,30.8,32.7z"/>
	<path fill="#CCCCCC" d="M36.6,31.4c-0.1,0.1-0.2,0.2-0.3,0.2c-0.1,0-0.2,0-0.3,0l-2.1-0.4v-0.8c0-0.3,0-0.5,0.1-0.7
		c0-0.2,0.1-0.3,0.2-0.4l0.1-0.1L34,28.9l-1.4,1.4l0.3,0.3l0.2-0.2c0.1-0.1,0.1-0.1,0.1-0.1h0.1c0,0,0,0,0,0.1v0.1v1.9l-0.8-0.8
		c-0.1-0.1-0.2-0.2-0.2-0.3c0-0.1,0.1-0.2,0.2-0.3l0.1-0.1l-0.3-0.3L30.9,32l0.3,0.3l0.2-0.2c0.1-0.1,0.2-0.2,0.3-0.2
		c0.1,0,0.2,0.1,0.3,0.2l1.8,1.8c0.1,0.1,0.2,0.2,0.2,0.3c0,0.1-0.1,0.2-0.2,0.3l-0.2,0.2l0.3,0.3l1.4-1.4L35,33.3l-0.1,0.1
		c-0.1,0.1-0.2,0.2-0.3,0.2c-0.1,0-0.2-0.1-0.3-0.2L33.9,33v-0.9l1.4,0.3c0.1,0,0.1,0,0.1,0h0.1v0.1c0,0-0.1,0.1-0.1,0.2l-0.2,0.2
		l0.3,0.3l1.5-1.5L36.6,31.4L36.6,31.4z"/>
	<path fill="#CCCCCC" d="M38.3,27.9c0.4,0.4,0.5,0.7,0.6,0.9c0,0.2-0.1,0.4-0.3,0.7l-0.7,0.7l-1-1l0.2-0.2c0.2-0.2,0.3-0.2,0.4-0.2
		c0.1,0,0.3,0.2,0.6,0.4l0.3-0.3l-1.6-1.6l-0.3,0.3c0.2,0.2,0.3,0.4,0.3,0.5s-0.1,0.3-0.2,0.4l-0.2,0.2l-0.9-0.9l0.7-0.7
		c0.3-0.3,0.5-0.4,0.7-0.4s0.5,0.2,0.8,0.5l0.3-0.3l-1.2-1.2l-2.7,2.7l0.3,0.3l0.2-0.2c0.1-0.1,0.2-0.2,0.3-0.2
		c0.1,0,0.2,0.1,0.3,0.2l1.8,1.8c0.1,0.1,0.2,0.2,0.2,0.3c0,0.1-0.1,0.2-0.2,0.3l-0.2,0.2l0.3,0.3l2.7-2.7l-1.2-1.1L38.3,27.9z"/>
	<path fill="#CCCCCC" d="M42.2,24.9l-0.3,0.2c0.3,0.3,0.4,0.5,0.4,0.6c0,0-0.1,0.1-0.1,0c0,0-0.1-0.1-0.2-0.2l-0.4-0.1
		c-0.2-0.2-0.4-0.3-0.6-0.3c-0.2,0-0.4,0.1-0.6,0.2c0.2-0.3,0.3-0.6,0.3-0.8c0-0.3-0.1-0.5-0.3-0.7c-0.2-0.2-0.5-0.3-0.8-0.3
		c-0.3,0.1-0.6,0.2-0.9,0.6l-1.6,1.6l0.3,0.3l0.2-0.2c0.1-0.1,0.2-0.2,0.3-0.2c0.1,0,0.2,0.1,0.3,0.2l1.8,1.8
		c0.1,0.1,0.2,0.2,0.2,0.3c0,0.1-0.1,0.2-0.2,0.3l-0.3,0.1l0.3,0.3l1.5-1.5l-0.3-0.3L41,27c-0.1,0.1-0.2,0.2-0.3,0.2
		c-0.1,0-0.2-0.1-0.3-0.2l-0.8-0.7l0.2-0.2c0.2-0.2,0.5-0.4,0.6-0.4c0.2,0,0.4,0.1,0.6,0.3l0.4,0.3c0.2,0.2,0.4,0.3,0.6,0.3
		c0.2,0,0.4-0.1,0.5-0.2c0.2-0.2,0.3-0.4,0.2-0.6C42.7,25.5,42.6,25.3,42.2,24.9z M39.8,25.4l-0.5,0.5L38.4,25l0.5-0.5
		c0.2-0.2,0.4-0.3,0.6-0.3c0.2,0,0.3,0.1,0.5,0.2c0.2,0.2,0.2,0.3,0.2,0.5C40.1,25.1,40,25.2,39.8,25.4z"/>
	<path fill="#CCCCCC" d="M45.9,22.1c-0.1,0.1-0.2,0.2-0.3,0.2s-0.2-0.1-0.3-0.2l-1.7-1.7c-0.1-0.1-0.2-0.2-0.2-0.3s0.1-0.2,0.2-0.3
		l0.2-0.2l-0.4-0.3l-1.5,1.5l0.3,0.3l0.2-0.2c0.1-0.1,0.2-0.2,0.3-0.2c0.1,0,0.2,0.1,0.3,0.2l1.8,1.8c0.1,0.1,0.2,0.2,0.2,0.3
		c0,0.1-0.1,0.2-0.2,0.3l-0.2,0.2l0.3,0.3l1.5-1.5L46.1,22L45.9,22.1z"/>
	<path fill="#CCCCCC" d="M46.8,16.7c0-0.1,0.1-0.2,0.2-0.3l0.1-0.1L46.8,16l-1.3,1.3l0.3,0.3l0.2-0.2c0.1-0.1,0.2-0.2,0.3-0.2
		c0.1,0,0.2,0.1,0.3,0.2l1.6,1.6l-3.4-0.9l-1.2,1.2l0.3,0.3l0.2-0.2c0.1-0.1,0.2-0.2,0.3-0.2s0.2,0.1,0.3,0.2l1.8,1.8
		c0.1,0.1,0.2,0.2,0.2,0.3c0,0.1-0.1,0.2-0.2,0.3L46.3,22l0.3,0.3l1.4-1.4l-0.3-0.3l-0.2,0.2c-0.1,0.1-0.2,0.2-0.3,0.2
		c-0.1,0-0.2-0.1-0.3-0.2L45.1,19l3.8,1.1l0.6-0.6l-2.4-2.4C46.9,16.9,46.8,16.8,46.8,16.7z"/>
	<path fill="#CCCCCC" d="M51.4,16.6c-0.1,0.1-0.2,0.2-0.3,0.2s-0.2-0.1-0.3-0.2l-2-2l0.1-0.1c0.2-0.2,0.5-0.3,0.7-0.3
		s0.5,0.2,0.8,0.5l0.3-0.3l-1.2-1.2l-2.6,2.6l1.2,1.2l0.3-0.3c-0.3-0.3-0.5-0.6-0.5-0.8s0-0.5,0.3-0.7l0.1-0.1l2,2
		c0.1,0.1,0.2,0.2,0.2,0.3c0,0.1-0.1,0.2-0.2,0.3l-0.2,0.2l0.3,0.3l1.6-1.6l-0.3-0.3L51.4,16.6z"/>
	<path fill="#CCCCCC" d="M53.8,12.4c0.4,0.4,0.5,0.7,0.6,0.9c0,0.2-0.1,0.4-0.3,0.7l-0.7,0.7l-1-1l0.2-0.2c0.2-0.2,0.3-0.2,0.4-0.2
		c0.1,0,0.3,0.2,0.6,0.4l0.3-0.3l-1.5-1.5l-0.3,0.3c0.2,0.2,0.3,0.4,0.3,0.5c0,0.1-0.1,0.3-0.2,0.4L52,13.3l-0.9-0.9l0.7-0.7
		c0.3-0.3,0.5-0.4,0.7-0.4c0.2,0,0.5,0.2,0.8,0.5l0.3-0.3l-1.1-1.1l-0.1-0.1L49.7,13l0.3,0.3l0.2-0.2c0.1-0.1,0.2-0.2,0.3-0.2
		c0.1,0,0.2,0.1,0.3,0.2l1.8,1.8c0.1,0.1,0.2,0.2,0.2,0.3c0,0.1-0.1,0.2-0.2,0.3l-0.2,0.2l0.3,0.3l2.7-2.7l-0.2-0.2L54.1,12
		L53.8,12.4z"/>
	<path fill="#CCCCCC" d="M56.4,9.7c0.2,0.2,0.3,0.3,0.4,0.5c0.1,0.1,0.2,0.3,0.2,0.4s0,0.2,0,0.4c-0.1,0.1-0.2,0.3-0.4,0.5L56.1,12
		l-2-2c-0.1-0.1-0.2-0.2-0.2-0.3c0-0.1,0.1-0.2,0.2-0.3l0.2-0.2L54,8.9l-1.5,1.5l0.3,0.3l0.2-0.2c0.1-0.1,0.2-0.2,0.3-0.2
		c0.1,0,0.2,0.1,0.3,0.2l1.8,1.8c0.1,0.1,0.2,0.2,0.2,0.3c0,0.1-0.1,0.2-0.2,0.3l-0.2,0.2l0.3,0.3l2.6-2.6l-1.3-1.3L56.4,9.7z"/>
	<path fill="#CCCCCC" d="M59.1,7c0.2,0.2,0.3,0.3,0.4,0.5c0.1,0.1,0.2,0.3,0.2,0.4c0,0.1,0,0.2,0,0.4c-0.1,0.1-0.2,0.3-0.4,0.5
		l-0.5,0.5l-2-2c-0.1-0.1-0.2-0.2-0.2-0.3c0-0.1,0.1-0.2,0.2-0.3L57,6.5l-0.3-0.3l-1.5,1.5L55.5,8l0.2-0.2c0.1-0.1,0.2-0.2,0.3-0.2
		c0.1,0,0.2,0.1,0.3,0.2l1.8,1.8c0.1,0.1,0.2,0.2,0.2,0.3c0,0.1-0.1,0.2-0.2,0.3l-0.2,0.2l0.3,0.3l2.6-2.6l-1.3-1.3L59.1,7z"/>
	<path fill="#CCCCCC" d="M61.8,6.2c-0.1,0.1-0.2,0.2-0.3,0.2c-0.1,0-0.2-0.1-0.3-0.2l-1.8-1.8c-0.1-0.1-0.2-0.2-0.2-0.3
		c0-0.1,0.1-0.2,0.2-0.3l0.2-0.2l-0.3-0.3l-1.5,1.5l0.3,0.3l0.2-0.2c0.1-0.1,0.2-0.2,0.3-0.2c0.1,0,0.2,0.1,0.3,0.2l1.8,1.8
		c0.1,0.1,0.2,0.2,0.2,0.3c0,0.1-0.1,0.2-0.2,0.3l-0.2,0.2l0.3,0.3l1.5-1.5L62,6L61.8,6.2z"/>
	<path fill="#CCCCCC" d="M63.8,2.4c0-0.1,0-0.1,0.1-0.2L64.1,2l-0.3-0.3l-1.5,1.5l0.3,0.3l0.2-0.2c0.1-0.1,0.3-0.2,0.3-0.2
		c0.1,0,0.1,0.1,0.2,0.2l0.2,0.2c0.2,0.2,0.2,0.4,0.2,0.6s-0.1,0.4-0.3,0.6C63.1,5,62.8,5.1,62.5,5c-0.4-0.1-0.7-0.3-1.1-0.7
		c-0.4-0.4-0.6-0.7-0.7-1.1c-0.1-0.4,0-0.7,0.3-0.9C61.2,2.1,61.5,2,61.8,2c0.3,0,0.6,0.1,0.9,0.3L63,2l-1.2-1.2l-0.3,0.3l0.1,0.4
		c-0.2,0-0.4,0-0.6,0.1c-0.2,0.1-0.4,0.2-0.5,0.4c-0.2,0.2-0.3,0.4-0.4,0.6C60,2.8,60,3.1,60,3.3c0,0.3,0.1,0.6,0.2,0.8
		c0.1,0.3,0.3,0.5,0.5,0.8c0.2,0.2,0.5,0.4,0.7,0.5c0.3,0.1,0.5,0.2,0.8,0.2s0.5,0,0.8-0.1c0.2-0.1,0.4-0.2,0.6-0.4s0.3-0.3,0.4-0.5
		c0.1-0.2,0.1-0.4,0.2-0.6l0.4,0.1l0.3-0.3l-1-1C63.9,2.6,63.9,2.5,63.8,2.4z"/>
	<path fill="#CCCCCC" d="M66.6-0.4C67,0,67.1,0.3,67.2,0.5c0,0.2-0.1,0.4-0.3,0.7l-0.7,0.7l-1-1l0.2-0.2c0.2-0.2,0.3-0.2,0.4-0.2
		c0.1,0,0.3,0.2,0.6,0.4l0.3-0.3l-1.5-1.5l-0.3,0.3c0.2,0.2,0.3,0.4,0.3,0.5c0,0.1-0.1,0.3-0.2,0.4l-0.2,0.2l-0.9-0.9l0.7-0.7
		c0.3-0.3,0.5-0.4,0.7-0.4c0.2,0,0.5,0.2,0.8,0.5l0.3-0.3l-1.2-1.2l-2.7,2.7l0.3,0.3L63,0.3c0.1-0.1,0.2-0.2,0.3-0.2
		c0.1,0,0.2,0.1,0.3,0.2l1.8,1.8c0.1,0.1,0.2,0.2,0.2,0.3c0,0.1-0.1,0.2-0.2,0.3l-0.2,0.2l0.3,0.3l2.7-2.7l-1.3-1.3L66.6-0.4z"/>
	<path fill="#CCCCCC" d="M68.6-5.1c0-0.1,0.1-0.2,0.2-0.3l0.1-0.1l-0.3-0.3l-1.3,1.3l0.3,0.3l0.2-0.2c0.1-0.1,0.2-0.2,0.3-0.2
		c0.1,0,0.2,0.1,0.3,0.2l1.5,1.5l-3.4-0.9l-1.2,1.2l0.3,0.3l0.2-0.2c0.1-0.1,0.2-0.2,0.3-0.2c0.1,0,0.2,0.1,0.3,0.2l1.8,1.8
		c0.1,0.1,0.2,0.2,0.2,0.3s-0.1,0.2-0.2,0.3L68,0.1l0.3,0.3L69.7-1l-0.3-0.3l-0.2,0.2C69.1-1,69-0.9,68.9-0.9
		c-0.1,0-0.2-0.1-0.3-0.2l-1.8-1.8l3.8,1.1l0.6-0.6l-2.4-2.4C68.6-4.9,68.6-5,68.6-5.1z"/>
	<path fill="#CCCCCC" d="M73.4-5.4l-0.2,0.2C73.1-5.1,73-5,72.9-5c-0.1,0-0.2-0.1-0.3-0.2l-2-2l0.1-0.1c0.2-0.2,0.5-0.3,0.7-0.3
		s0.5,0.2,0.8,0.5l0.3-0.3l-1.2-1.2L68.7-6l1.2,1.2l0.3-0.3c-0.3-0.3-0.5-0.6-0.5-0.8s0-0.5,0.3-0.7l0.1-0.1l2,2
		c0.1,0.1,0.2,0.2,0.2,0.3c0,0.1-0.1,0.2-0.2,0.3l-0.2,0.2l0.3,0.3l1.6-1.6L73.4-5.4z"/>
	<polygon fill="#CCCCCC" points="49.7,-7.3 53,-10.5 52.4,-11.9 53.6,-11.2 55.4,-13 52.3,-14.8 50.5,-13 52.1,-12.1 50.5,-10.6 
		49.8,-14.4 47.8,-12.3 48.4,-8.7 	"/>
	<path fill="#CCCCCC" d="M60.5-1.7L61.8-3l0.1-3.1l-6.1-6.1l-5.3,5.3l7.8,7.8l1.2-2.6L58.2-3l1.1-1.1l-0.6-1.4l1.6,1.6L59.4-3
		L60.5-1.7z M53.6-7.5L55.1-9l1,1l-1.5,1.5L53.6-7.5z M56.8-4.3l-0.9-0.9l1-1l-0.6-1.4l2,2L56.8-4.3z"/>
	<polygon fill="#CCCCCC" points="62.8,-16.1 62.2,-17.9 58.7,-14.5 57.1,-16.1 59.3,-19.9 58,-21.8 55.5,-17.6 54.3,-18.8 
		52.4,-16.9 58,-11.3 	"/>
	<polygon fill="#CCCCCC" points="60.3,-12.8 58.4,-10.9 64.2,-5.1 69,-9.9 68.3,-11.8 64.8,-8.3 63,-10.1 65.3,-13.9 64,-15.8 
		61.5,-11.6 	"/>
	<path fill="#CCCCCC" d="M52.7,6.5L53,2.7l-3.8-3.8L38.1,10l5.5,5.5L52.7,6.5z M41.6,9.2l6.9-6.9l3,3l-6.9,6.9l-1-0.9l6.2-6.2
		l-0.6-1.7l-6.7,6.7L41.6,9.2z"/>
	<polygon fill="#CCCCCC" points="35.4,4.2 35.2,3.8 35.7,3.3 36.3,4 34,6.3 35.3,7.5 37.4,5.4 37.4,9.9 39.7,7.6 39.7,5.5 41.6,5.6 
		43.8,3.5 39.6,3.2 40.7,2.1 40,0.3 38.2,2.1 37.6,1.4 38.8,0.2 38.1,-1.7 34.6,1.9 34.3,1.2 32.4,3.1 33.5,6.1 	"/>
	<path fill="#CCCCCC" d="M46.9,0.1l0.2-3.6l-3.9-3.9L38-2.2l5.6,5.6L46.9,0.1z M42.5-4.3l3,3l-1.4,1.4l-3-3L42.5-4.3z"/>
	<polygon fill="#CCCCCC" points="39.7,19.4 33.9,17.7 30.5,14.4 28.7,16.2 32.1,19.6 33.6,25.5 35.7,23.4 34.8,20.4 37.8,21.3 	"/>
	<polygon fill="#CCCCCC" points="25.4,13.1 26.3,14.4 24.6,16.2 30.9,22.5 31.9,20.1 27.7,15.9 30.3,13.4 34.8,17.9 35.9,15.5 
		30.6,10.2 28.4,12.4 27.4,11 28.9,9.5 28,7.4 21.9,13.6 23.4,15.1 	"/>
	<path fill="#CCCCCC" d="M22.2,22l0.2,0.4L22,22.7l0.6,0.6l0.3-0.2l0.4,0.2v0.4l0.9,0.1v-0.5l0.4-0.1l0.2,0.3l-2.2,2.2L24,27
		l3.5-3.4l0.5,2.3h-0.6l-2.2,2.3l5.7,0.1l2.3-2.4l-2.6-0.1L29.5,22l-1.6-1.6L26,22.3v-0.9h-0.4L25.5,21l0.3-0.4L25.2,20l-0.3,0.3
		l-0.4-0.2v-0.5h-0.8L23.6,20l-0.4,0.1l-0.3-0.3l-0.6,0.7l0.2,0.2l-0.2,0.4h-0.4v0.4L21.8,22H22.2z M25.5,22.3H26l-0.5,0.5l-0.2-0.2
		L25.5,22.3z"/>
	<polygon fill="#CCCCCC" points="21.9,21.5 20.4,18.3 23.8,19.5 25.7,17.6 20,15.5 17.6,17.9 19.8,23.5 	"/>
	<polygon fill="#CCCCCC" points="3.6,35.9 5,34.4 6.4,38.5 7.8,39.9 12.8,34.8 17.1,39.1 15.8,40.4 17.3,41.8 18.6,40.5 19.2,36.9 
		15,32.7 19,28.7 18.2,26.5 13.4,31.2 11.7,29.5 9.6,31.6 11.3,33.3 8.7,35.9 7.4,32.1 14.9,24.6 14,22.3 6.5,29.8 6.3,29.1 4,31.4 
		4.2,32.1 2.1,34.3 	"/>
	<polygon fill="#CCCCCC" points="16.4,33 23.2,35.8 25.5,33.5 18.7,30.7 	"/>
	<polygon fill="#CCCCCC" points="13.1,36.3 10.8,38.6 13.4,45.7 15.7,43.4 	"/>
</g>
</svg>
