<?xml version="1.0" standalone="no"?><!DOCTYPE svg PUBLIC "-//W3C//DTD SVG 1.1//EN" "http://www.w3.org/Graphics/SVG/1.1/DTD/svg11.dtd"><svg t="1520401375407" class="icon" style="" viewBox="0 0 1024 1024" version="1.1" xmlns="http://www.w3.org/2000/svg" p-id="1561" xmlns:xlink="http://www.w3.org/1999/xlink" width="30" height="30"><defs><style type="text/css"></style></defs><path d="M299.008 507.904h423.936V716.8H299.008v219.136L942.08 942.08V407.552L620.544 90.112 299.008 407.552z" fill="#72D6EF" p-id="1562"></path><path d="M722.944 507.904H299.008v-100.352l-200.704 204.8 200.704 194.56V716.8h423.936z" fill="#FFFF00" p-id="1563"></path><path d="M972.8 399.36c0-2.048 0-6.144-2.048-8.192 0-2.048-2.048-4.096-2.048-6.144 0-2.048-2.048-2.048-2.048-4.096s-2.048-2.048-2.048-4.096L645.12 59.392c-6.144-6.144-16.384-10.24-24.576-8.192-8.192 0-18.432 2.048-24.576 8.192L280.576 374.784c-2.048 0-2.048 2.048-4.096 2.048L67.584 587.776c-6.144 6.144-10.24 14.336-10.24 22.528 0 8.192 2.048 16.384 8.192 22.528l202.752 202.752v77.824H81.92c-16.384 0-30.72 14.336-30.72 30.72s14.336 30.72 30.72 30.72h860.16c16.384 0 30.72-14.336 30.72-30.72V399.36c0 2.048 0 2.048 0 0zM698.368 681.984h-368.64v-143.36h368.64v143.36zM131.072 610.304l137.216-137.216V745.472l-137.216-135.168z m198.656 133.12h399.36c16.384 0 30.72-14.336 30.72-30.72v-204.8c0-16.384-14.336-30.72-30.72-30.72H329.728v-63.488L620.544 122.88l290.816 290.816v497.664H329.728v-167.936z" fill="#44668E" p-id="1564"></path></svg>