<?xml version="1.0" standalone="no"?><!DOCTYPE svg PUBLIC "-//W3C//DTD SVG 1.1//EN" "http://www.w3.org/Graphics/SVG/1.1/DTD/svg11.dtd"><svg t="1520322412061" class="icon" style="" viewBox="0 0 1024 1024" version="1.1" xmlns="http://www.w3.org/2000/svg" p-id="924" xmlns:xlink="http://www.w3.org/1999/xlink" width="30" height="30"><defs><style type="text/css"></style></defs><path d="M395.264 757.76h231.424v184.32H395.264z" fill="#8CC63F" p-id="925"></path><path d="M628.736 81.92H81.92v854.016h313.344V757.76H286.72V450.56h450.56v307.2h-108.544v178.176H942.08V81.92z" fill="#98D835" p-id="926"></path><path d="M286.72 450.56h450.56v307.2H286.72z" fill="#F4C99F" p-id="927"></path><path d="M942.08 51.2H81.92c-16.384 0-30.72 14.336-30.72 30.72v860.16c0 16.384 14.336 30.72 30.72 30.72h860.16c16.384 0 30.72-14.336 30.72-30.72V81.92c0-16.384-14.336-30.72-30.72-30.72z m-235.52 675.84h-389.12v-245.76h389.12v245.76z m-280.576-307.2v-307.2h169.984v307.2h-169.984z m-61.44 0H286.72c-16.384 0-30.72 14.336-30.72 30.72v307.2c0 16.384 14.336 30.72 30.72 30.72h77.824v122.88H112.64v-798.72h251.904v307.2z m61.44 368.64h169.984v122.88h-169.984v-122.88z m233.472 0H737.28c16.384 0 30.72-14.336 30.72-30.72V450.56c0-16.384-14.336-30.72-30.72-30.72h-77.824v-307.2h251.904v798.72H659.456v-122.88z" fill="#44668E" p-id="928"></path></svg>