<?xml version="1.0" standalone="no"?><!DOCTYPE svg PUBLIC "-//W3C//DTD SVG 1.1//EN" "http://www.w3.org/Graphics/SVG/1.1/DTD/svg11.dtd"><svg t="1520401414397" class="icon" style="" viewBox="0 0 1024 1024" version="1.1" xmlns="http://www.w3.org/2000/svg" p-id="1889" xmlns:xlink="http://www.w3.org/1999/xlink" width="30" height="30"><defs><style type="text/css"></style></defs><path d="M718.848 630.784L512 425.984v98.304H81.92v206.848h430.08v94.208z" fill="#C6D5E0" p-id="1890"></path><path d="M972.8 399.36c0-2.048 0-6.144-2.048-8.192 0-2.048-2.048-4.096-2.048-6.144 0-2.048-2.048-2.048-2.048-4.096s-2.048-2.048-2.048-4.096L645.12 59.392c-6.144-6.144-16.384-10.24-24.576-8.192-8.192 0-18.432 2.048-24.576 8.192L278.528 378.88c-2.048 2.048-2.048 2.048-2.048 4.096 0 0-2.048 2.048-2.048 4.096s-2.048 4.096-2.048 6.144c0 2.048-2.048 6.144-2.048 8.192V497.664H81.92c-16.384 0-30.72 14.336-30.72 30.72v204.8c0 16.384 14.336 30.72 30.72 30.72h186.368v149.504H81.92c-16.384 0-30.72 14.336-30.72 30.72s14.336 30.72 30.72 30.72h860.16c16.384 0 30.72-14.336 30.72-30.72V399.36c0 2.048 0 2.048 0 0z m-430.08 331.776V491.52l137.216 137.216-137.216 137.216v-34.816z m-61.44-30.72h-368.64v-143.36h368.64v143.36z m-151.552 61.44h151.552V839.68c0 4.096 0 8.192 2.048 10.24 4.096 8.192 8.192 14.336 16.384 16.384 4.096 2.048 8.192 2.048 10.24 2.048 4.096 0 8.192 0 10.24-2.048 4.096-2.048 8.192-4.096 10.24-6.144l210.944-210.944c6.144-6.144 8.192-14.336 8.192-22.528 0-8.192-2.048-16.384-8.192-22.528L534.528 397.312c-12.288-12.288-30.72-12.288-43.008 0-4.096 4.096-6.144 8.192-8.192 14.336 0 2.048-2.048 4.096-2.048 6.144V495.616h-151.552v-83.968L620.544 122.88l290.816 290.816v497.664H329.728v-149.504z" fill="#8EABC1" p-id="1891"></path></svg>