<?xml version="1.0" standalone="no"?><!DOCTYPE svg PUBLIC "-//W3C//DTD SVG 1.1//EN" "http://www.w3.org/Graphics/SVG/1.1/DTD/svg11.dtd"><svg t="1520401354974" class="icon" style="" viewBox="0 0 1024 1024" version="1.1" xmlns="http://www.w3.org/2000/svg" p-id="1451" xmlns:xlink="http://www.w3.org/1999/xlink" width="30" height="30"><defs><style type="text/css"></style></defs><path d="M532.48 569.344V532.48c112.64-10.24 200.704-104.448 200.704-221.184 0-122.88-98.304-221.184-221.184-221.184-122.88 0-221.184 98.304-221.184 221.184 0 114.688 86.016 208.896 196.608 219.136v36.864c-194.56 14.336-350.208 176.128-350.208 374.784h747.52c2.048-198.656-155.648-362.496-352.256-372.736z m-24.576 292.864L436.224 778.24l63.488-147.456h22.528l69.632 139.264-83.968 92.16z" fill="#A0A0EF" p-id="1452"></path><path d="M512 604.16L436.224 778.24l71.68 83.968 86.016-92.16z" fill="#FFB0DD" p-id="1453"></path><path d="M923.648 933.888c-6.144-180.224-129.024-333.824-296.96-382.976 2.048-2.048 10.24-6.144 12.288-6.144 8.192-4.096 28.672-18.432 30.72-20.48 8.192-6.144 26.624-22.528 28.672-26.624 6.144-6.144 32.768-40.96 36.864-45.056 6.144-8.192 10.24-18.432 14.336-26.624 0-2.048 2.048-2.048 2.048-4.096 16.384-32.768 24.576-69.632 24.576-108.544 0-145.408-118.784-264.192-264.192-264.192-145.408 0-264.192 118.784-264.192 264.192 0 104.448 61.44 194.56 149.504 237.568-165.888 49.152-290.816 200.704-296.96 382.976v8.192c0 16.384 14.336 30.72 30.72 30.72h757.76c14.336 0 26.624-8.192 32.768-20.48 2.048-4.096 4.096-8.192 4.096-14.336v-2.048c-2.048 0-2.048 0-2.048-2.048zM307.2 315.392c0-112.64 92.16-204.8 204.8-204.8s204.8 92.16 204.8 204.8-92.16 204.8-204.8 204.8-204.8-92.16-204.8-204.8z m204.8 505.856l-45.056-53.248 45.056-104.448 45.056 104.448-45.056 53.248zM305.152 675.84c2.048 0 2.048-2.048 4.096-2.048 43.008-32.768 92.16-55.296 147.456-63.488h2.048c4.096 0 8.192 0 10.24-2.048l-67.584 153.6c-2.048 4.096-2.048 6.144-2.048 10.24v2.048c0 6.144 2.048 10.24 4.096 16.384l77.824 92.16c6.144 10.24 16.384 14.336 28.672 14.336 10.24 0 22.528-4.096 28.672-14.336l77.824-92.16c4.096-4.096 4.096-10.24 4.096-16.384v-2.048c0-4.096 0-6.144-2.048-10.24l-67.584-153.6c155.648 18.432 280.576 143.36 296.96 301.056v4.096h-675.84v-4.096c10.24-96.256 61.44-178.176 133.12-233.472z" fill="#44668E" p-id="1454"></path></svg>