<?xml version="1.0" encoding="utf-8"?>
<!-- Generator: Adobe Illustrator 23.0.0, SVG Export Plug-In . SVG Version: 6.00 Build 0)  -->
<svg version="1.1" id="图层_1" xmlns="http://www.w3.org/2000/svg" xmlns:xlink="http://www.w3.org/1999/xlink" x="0px" y="0px"
	 viewBox="0 0 56 56" style="enable-background:new 0 0 56 56;" xml:space="preserve">
<style type="text/css">
	.st0{fill:#54D6B7;}
	.st1{fill:#27D6FF;}
	.st2{opacity:0.8;fill:#FFFFFF;}
	.st3{opacity:0.8;}
	.st4{fill:#FFFFFF;}
</style>
<path class="st2" d="M48.97,35.14c4.23-2.02,6.52-4.63,6.52-7.5c0-2.69-2.04-5.17-5.81-7.14c3.77-1.98,5.81-4.45,5.81-7.14
	C55.5,6.88,43.68,1.99,28,1.99S0.5,6.88,0.5,13.37c0,2.68,2.04,5.16,5.82,7.14c-3.78,1.97-5.82,4.45-5.82,7.14
	c0,2.87,2.29,5.47,6.51,7.49c-4.22,2.02-6.51,4.62-6.51,7.48c0,6.5,11.82,11.39,27.5,11.39s27.5-4.89,27.5-11.39
	C55.5,39.77,53.21,37.16,48.97,35.14z M3.12,13.37C3.12,9.22,13.34,4.6,28,4.6c14.67,0,24.89,4.62,24.88,8.77
	c0,2.08-2.5,4.24-6.86,5.92c0,0-0.01,0-0.01,0c-0.47,0.18-0.97,0.35-1.47,0.51c-4.6,1.51-10.39,2.34-16.55,2.34
	c-6.83,0-13.23-1.01-18.02-2.85C5.62,17.61,3.12,15.46,3.12,13.37z M3.12,27.65c0-1.98,2.39-4.12,6.4-5.74
	c0.11,0.04,0.23,0.07,0.34,0.11c0.5,0.18,1,0.35,1.53,0.51c0.15,0.04,0.3,0.08,0.45,0.13c0.54,0.16,1.08,0.31,1.64,0.45
	c0.17,0.04,0.34,0.08,0.51,0.12c0.55,0.13,1.11,0.26,1.69,0.37c0.21,0.04,0.42,0.08,0.63,0.11c0.55,0.1,1.1,0.21,1.67,0.29
	c0.27,0.04,0.54,0.07,0.81,0.11c0.52,0.07,1.05,0.15,1.58,0.21c0.35,0.04,0.7,0.07,1.06,0.1c0.47,0.05,0.94,0.1,1.42,0.13
	c0.48,0.04,0.97,0.06,1.46,0.08c0.36,0.02,0.72,0.05,1.09,0.06c0.86,0.03,1.73,0.05,2.61,0.05c0.88,0,1.75-0.02,2.61-0.05
	c0.39-0.01,0.76-0.04,1.15-0.06c0.47-0.03,0.94-0.04,1.4-0.08c0.51-0.04,1-0.09,1.5-0.14c0.32-0.03,0.65-0.06,0.97-0.09
	c0.57-0.06,1.12-0.14,1.67-0.22c0.24-0.03,0.48-0.06,0.71-0.1c0.6-0.09,1.19-0.2,1.77-0.31c0.17-0.03,0.35-0.06,0.52-0.09
	c0.62-0.12,1.22-0.26,1.82-0.4c0.12-0.03,0.25-0.05,0.37-0.08c0.62-0.15,1.22-0.32,1.81-0.5c0.09-0.03,0.18-0.05,0.26-0.07
	c0.61-0.18,1.19-0.38,1.76-0.59c0.05-0.02,0.1-0.03,0.14-0.05c4.02,1.63,6.41,3.76,6.41,5.74c0,2.23-2.91,4.56-7.79,6.26
	c-4.09,1.41-9.25,2.28-14.73,2.47c-0.78,0.03-1.57,0.04-2.36,0.04c-6.34,0-12.41-0.89-17.09-2.51C6.03,32.21,3.12,29.87,3.12,27.65z
	 M28,51.4c-14.67,0-24.89-4.63-24.89-8.77c0-2.16,2.75-4.42,7.38-6.11c0.04,0.01,0.07,0.02,0.11,0.03c0.56,0.18,1.13,0.36,1.73,0.52
	c0.11,0.03,0.22,0.06,0.32,0.08c0.54,0.15,1.09,0.29,1.65,0.42c0.18,0.04,0.36,0.08,0.54,0.11c0.51,0.11,1.02,0.22,1.55,0.32
	c0.25,0.05,0.52,0.09,0.78,0.13c0.47,0.08,0.93,0.16,1.4,0.23c0.33,0.05,0.67,0.09,1.01,0.13c0.42,0.05,0.83,0.11,1.26,0.16
	c0.4,0.04,0.82,0.07,1.23,0.11c0.37,0.03,0.74,0.07,1.11,0.1c0.5,0.04,1.01,0.06,1.52,0.08c0.29,0.01,0.58,0.04,0.87,0.05
	c0.81,0.03,1.62,0.04,2.43,0.04c0.82,0,1.63-0.01,2.43-0.04c0.32-0.01,0.64-0.03,0.96-0.05c0.48-0.02,0.96-0.04,1.43-0.08
	c0.4-0.03,0.79-0.07,1.18-0.1c0.39-0.03,0.78-0.06,1.16-0.1c0.42-0.05,0.83-0.1,1.25-0.16c0.34-0.04,0.69-0.08,1.03-0.13
	c0.43-0.06,0.85-0.14,1.27-0.21c0.31-0.05,0.62-0.1,0.93-0.16c0.43-0.08,0.84-0.17,1.26-0.26c0.29-0.06,0.58-0.12,0.86-0.18
	c0.41-0.09,0.8-0.2,1.2-0.3c0.27-0.07,0.55-0.14,0.82-0.21c0.38-0.11,0.75-0.22,1.12-0.34c0.21-0.06,0.42-0.12,0.63-0.19
	c4.63,1.68,7.38,3.95,7.38,6.11C52.89,46.78,42.67,51.4,28,51.4z"/>
</svg>
