<?xml version="1.0" encoding="utf-8"?>
<!-- Generator: Adobe Illustrator 23.0.0, SVG Export Plug-In . SVG Version: 6.00 Build 0)  -->
<svg version="1.1" id="图层_1" xmlns="http://www.w3.org/2000/svg" xmlns:xlink="http://www.w3.org/1999/xlink" x="0px" y="0px"
	 viewBox="0 0 56 56" style="enable-background:new 0 0 56 56;" xml:space="preserve">
<style type="text/css">
	.st0{fill:#54D6B7;}
	.st1{fill:#27D6FF;}
	.st2{opacity:0.8;fill:#FFFFFF;}
	.st3{opacity:0.8;}
	.st4{fill:#FFFFFF;}
</style>
<g class="st3">
	<g>
		<path class="st4" d="M44.01,26.16L31.83,13.98c-0.51-0.51-1.33-0.51-1.84,0c-0.51,0.51-0.51,1.33,0,1.84L42.17,28L29.99,40.18
			c-0.51,0.51-0.51,1.33,0,1.84c0.51,0.51,1.33,0.51,1.84,0l12.18-12.18C45.03,28.82,45.03,27.18,44.01,26.16z"/>
		<path class="st4" d="M35.11,26.16L22.93,13.98c-0.51-0.51-1.33-0.51-1.84,0c-0.51,0.51-0.51,1.33,0,1.84L33.27,28L21.09,40.18
			c-0.51,0.51-0.51,1.33,0,1.84c0.51,0.51,1.33,0.51,1.84,0l12.18-12.18C36.13,28.82,36.13,27.18,35.11,26.16z"/>
		<path class="st4" d="M12.19,42.02c0.51,0.51,1.33,0.51,1.84,0l12.18-12.18c1.02-1.02,1.02-2.67,0-3.68L14.03,13.98
			c-0.51-0.51-1.33-0.51-1.84,0c-0.51,0.51-0.51,1.33,0,1.84L24.37,28L12.19,40.18C11.68,40.69,11.68,41.51,12.19,42.02z"/>
		<path class="st4" d="M1.8,17.29c0.72,0,1.3-0.58,1.3-1.3V3.11h12.88c0.72,0,1.3-0.58,1.3-1.3c0-0.72-0.58-1.3-1.3-1.3H3.11
			C1.67,0.5,0.5,1.67,0.5,3.11v12.88C0.5,16.71,1.08,17.29,1.8,17.29z"/>
		<path class="st4" d="M52.89,0.5L52.89,0.5H40.01c-0.72,0-1.3,0.58-1.3,1.3s0.58,1.3,1.3,1.3h12.88v12.88c0,0.72,0.58,1.3,1.3,1.3
			c0.72,0,1.3-0.58,1.3-1.3V3.11C55.5,1.67,54.33,0.5,52.89,0.5z"/>
		<path class="st4" d="M54.2,38.71c-0.72,0-1.3,0.58-1.3,1.3v12.88H40.01c-0.72,0-1.3,0.58-1.3,1.3c0,0.72,0.58,1.3,1.3,1.3h12.88h0
			c1.44,0,2.61-1.17,2.61-2.61V40.01C55.5,39.29,54.92,38.71,54.2,38.71z"/>
		<path class="st4" d="M15.99,52.89H3.11V40.01c0-0.72-0.58-1.3-1.3-1.3s-1.3,0.58-1.3,1.3v12.88v0c0,1.44,1.17,2.61,2.61,2.61
			h12.88c0.72,0,1.3-0.58,1.3-1.3C17.29,53.48,16.71,52.89,15.99,52.89z"/>
	</g>
</g>
</svg>
